# xmcd CD database file
#
# Track frame offsets:
#	150
#	18472
#	38922
#	57566
#	78527
#	109392
#	137008
#	159809
#	170941
#	189514
#	202091
#	220259
#	234478
#	260672
#
# Disc length: 3715 seconds
#
# Revision: 0
# Processed by: cddbd v1.5.2PL0 Copyright (c) Steve Scherf et al.
# Submitted via: CDex 1.70beta2
#
DISCID=d00e810e
DTITLE=David Orlowsky Trio - Vhronos
DYEAR=2010
DGENRE=Jazz
TTITLE0=Juli
TTITLE1=Sabada
TTITLE2=Indigo
TTITLE3=Carnyx
TTITLE4=insomnia
TTITLE5=chronos
TTITLE6=yun
TTITLE7=derwisch
TTITLE8=satin
TTITLE9=gais
TTITLE10=senryu
TTITLE11=santa fe
TTITLE12=lyra
TTITLE13=quinta
EXTD=YEAR: 2010
EXTT0=
EXTT1=
EXTT2=
EXTT3=
EXTT4=
EXTT5=
EXTT6=
EXTT7=
EXTT8=
EXTT9=
EXTT10=
EXTT11=
EXTT12=
EXTT13=
PLAYORDER=
